# xmcd CD database file generated by Grip 3.3.1
# 
# Track frame offsets:
#       150
#       4437
#       20722
#       33180
#       44648
#       56886
#       70568
#       84006
#       94027
#       108036
#       120245
#       136613
#       150857
#       160261
#       175296
#       186523
#       200359
#       212246
#       217965
#       226349
#       240710
#       252180
#       262818
#       273474
#       286233
# 
# Disc length: 3950 seconds
# 
# Revision: 1
# Processed by: cddbd v1.5.2PL0 Copyright (c) Steve Scherf et al.
# Submitted via: Grip 3.3.1
# 
DISCID=4d0f6c19
DTITLE=Delta Music and Entertainment GmbH - Best of the BLUES CD2
DYEAR=2013
DGENRE=Blues
TTITLE0=Bessie Jones - Sometimes
TTITLE1=Nina Simone - My Baby Just Carres For Me
TTITLE2=Aretha Franklin - Today I Sing The Blues
TTITLE3=Smiley Lewis - I Hear You Knocking
TTITLE4=Sonny Terry - Whoopin' The Blues
TTITLE5=Mose Allison - One Room Country Shack
TTITLE6=Buddy Guy - This Is The End
TTITLE7=Jimmy Reed - Aint`t That Loving You Baby
TTITLE8=Otis Rush - I Can´t Quit You Baby
TTITLE9=Howlin' Wolf - How Many More Years
TTITLE10=Boy Blue,Willie Jones And Joe Lee - Joe Lee's Rock
TTITLE11=Lowell Fulson - Reconsider Baby
TTITLE12=Vera Hall - Boll Weevil Holler
TTITLE13=Mississippi Fred McDowell - Shak'Em On Down
TTITLE14=Bo Diddley - Bo Diddley
TTITLE15=Willie Dixon - Walkin' The Blues
TTITLE16=Louis Jordan - Slow Down
TTITLE17=Bessie Jones - Go To Sleep Little Baby
TTITLE18=Vera Hall - Death Have Mercy
TTITLE19=Memphis Minnie - When The Levee Breaks
TTITLE20=Leadbelly - Rock Island Line
TTITLE21=Jimmy Reed - Take Out Some Insurance
TTITLE22=Little Walter - Juke
TTITLE23=Amos Milburn - Chicken Shack Boogie
TTITLE24=John Lee Hooker - Dimples
EXTD=YEAR: 2013
EXTT0=
EXTT1=
EXTT2=
EXTT3=
EXTT4=
EXTT5=
EXTT6=
EXTT7=
EXTT8=
EXTT9=
EXTT10=
EXTT11=
EXTT12=
EXTT13=
EXTT14=
EXTT15=
EXTT16=
EXTT17=
EXTT18=
EXTT19=
EXTT20=
EXTT21=
EXTT22=
EXTT23=
EXTT24=
PLAYORDER=
